<?xml version="1.0" encoding="UTF-8"?> <!-- Generator: Adobe Illustrator 23.0.3, SVG Export Plug-In . SVG Version: 6.00 Build 0) --> <svg xmlns="http://www.w3.org/2000/svg" xmlns:xlink="http://www.w3.org/1999/xlink" id="Layer_1" x="0px" y="0px" viewBox="0 0 512 512" xml:space="preserve"> <g> <g> <g> <path fill="#FFFFFF" d="M201.2,198.3c-11.9,0-21.6,9.8-21.6,21.9c0,12.1,9.7,21.9,21.6,21.9c11.9,0,21.6-9.8,21.6-21.9 C222.8,208.1,213.2,198.3,201.2,198.3z"></path> <path fill="#FFFFFF" d="M310.6,198.2c-12,0-21.8,9.9-21.8,22s9.8,22,21.8,22c12,0,21.8-9.9,21.8-22 C332.3,208,322.6,198.2,310.6,198.2z"></path> <path fill="#FFFFFF" d="M466.1,380.1c13.2-26.4,20.1-56.3,20.1-88.8l25.8-6l-7.4-32.1l-20.7,4.8c-2.5-17.7-6.9-35.3-13.1-52.4 c18.4-52,20.4-112.2,5.5-170.8l-4.1-16.3l-16.2,4.5c-7,1.9-67.6,19.2-96.4,47.1c-4.3-2.5-8.6-4.8-13-7 c-28.9-14.4-59.4-21.6-90.5-21.6c-31.1,0-61.6,7.3-90.5,21.6c-4.4,2.2-8.7,4.5-13,7C123.6,42.3,63,25,56.1,23.1l-16.2-4.5 l-4.1,16.3c-14.9,58.6-12.9,118.8,5.5,170.8C35,222.7,30.6,240.3,28.1,258l-20.7-4.8L0,285.3l25.8,6c0.1,32.5,6.9,62.4,20.1,88.8 L0,390.8l7.4,32.1l57-13.2c8.6,11.2,18.6,21.5,30,30.9c41.4,34.1,98.8,52.9,161.6,52.9s120.2-18.8,161.6-52.9 c11.4-9.4,21.4-19.7,30-30.9l57,13.2l7.4-32.1L466.1,380.1z M63.9,60c18.8,6.4,44.9,17.1,60.6,29.4c-11.3,9-22,19.1-31.9,30.3 c-11.1,12.6-21,26.1-29.5,40.4C57.1,128.2,57.3,94,63.9,60z M234.5,349.3c-8.5-8.5-13-17.4-13-21.9c0-4,0.7-4.2,3.2-5.3 c7.2-3,21.3-3.4,31.2-3.4c10,0,24.1,0.3,31.2,3.4c2.5,1.1,3.2,1.3,3.2,5.3c0,4.4-4.5,13.4-13,21.9c-8.4,8.4-17.3,12.9-21.5,12.9 S242.9,357.7,234.5,349.3z M432.8,372.4l-63.4-14.7l-7.4,32.1l49.5,11.5c-4.6,4.9-9.5,9.5-14.8,13.9 c-31.9,26.3-75.6,42-124.2,44.9v-68.1c12.9-5,23.4-14.4,28.3-19.2c6.8-6.8,22.6-24.8,22.6-45.1c0-16.6-8.3-29.3-23.3-35.6 c-10-4.2-22.8-5.9-44-5.9c-21.2,0-34,1.7-44,5.9c-15.1,6.3-23.3,19-23.3,35.6c0,20.3,15.8,38.3,22.6,45.1 c4.8,4.8,15.4,14.2,28.3,19.2V460c-48.6-2.9-92.3-18.6-124.2-44.9c-5.3-4.4-10.2-9-14.8-13.9l49.5-11.5l-7.4-32.1l-63.4,14.7 C66.9,350.8,60,326,58.9,298.9l83.7,19.4l7.4-32.1l-89.7-20.8c5.6-44.7,25.6-88.8,56.9-124c38.4-43.2,87.7-67,138.8-67 s100.5,23.8,138.8,67c31.2,35.2,51.3,79.3,56.9,124L362,286.3l7.4,32.1l83.7-19.4C452,326,445.1,350.8,432.8,372.4z M449,160 c-8.5-14.3-18.4-27.8-29.5-40.4c-9.9-11.2-20.6-21.3-31.9-30.3c15.7-12.3,41.8-22.9,60.6-29.4C454.7,94,454.9,128.2,449,160z"></path> </g> </g> </g> </svg> 