<?xml version="1.0" encoding="utf-8"?>
<!-- Generator: Adobe Illustrator 23.0.3, SVG Export Plug-In . SVG Version: 6.00 Build 0)  -->
<svg version="1.2" baseProfile="tiny" id="Слой_1"
	 xmlns="http://www.w3.org/2000/svg" xmlns:xlink="http://www.w3.org/1999/xlink" x="0px" y="0px" viewBox="0 0 800 208.7"
	 xml:space="preserve">
<g>
	<g>
		<g>
			<path fill="#FF8001" d="M675.7,50.3c-6.2-7.8-11.6-15.2-18.6-21.1c-2.5-2.1-5.1-4.3-8.4-5.1c-3.4-0.8-2.5-2.4-0.6-3.9
				c14.8-11.4,31-19.5,50.4-18.4c11.4,0.7,21.9,12.8,21.7,24.2c-0.1,5.4-3.6,9.4-10.5,10.8c-6.9,1.4-14,1.4-20.5-2
				c-3.9-2.1-6.3-0.7-8.3,2.4C678.3,41,677.1,45.2,675.7,50.3z"/>
			<path fill="#141414" d="M696.4,134.6c-1.8,3.9,1.1,3.9,3.9,4.3c11.7,1.5,23.6,1.9,34.9,5.7c0.6,0.2,1.3,0.2,1.9,0.5
				c1.7,0.6,3.1,1.6,2.3,3.6c-0.6,1.6-2,2.1-3.7,1.6c-13.8-4.7-28.3-5.6-42.7-7c-5.8-0.5-11.5-0.5-16.7,3.2
				c-4.5,3.2-9.6,3.6-14.1,0.5c-15.5-10.7-33-9.3-50.4-8.9c-0.5,0-1.3-0.1-1.5,0.1c-4.8,6.8-14.4,4.3-19.9,10.2
				c-3.5,3.7-8.7,3.6-13.1,1.4c-6-3-12.8-3.3-18.6-6.7c-2.9-1.7-6.8,0.4-10.2,0.9c-9.7,1.4-19.4,2.9-28.8,6c-2.1,0.7-4.1,1.4-5-1.1
				c-1-2.7,1.5-3.2,3.3-3.8c11.4-3.7,23.4-5.1,35.2-7c1.7-0.3,3.2-0.1,3.1-2.6c-0.4-12.7,13.4-23.5,29.6-22
				c11.2,1,20.1,5.8,23.4,17.6c0.5,1.9,1.7,2.1,3.3,2.1c9.2,0,18.3,0,27.5,0.2c2.5,0.1,2.5-1.1,2.8-2.9
				c2.2-12.1,12.1-19.4,26.3-19.2c13.4,0.1,25,8.7,26.9,20C696.4,132.1,696.3,133.2,696.4,134.6z"/>
			<path fill="#FF8001" d="M591.3,51.7c-1.4-4.7-2.5-8.1-4.3-11.3c-2.8-4.8-4.8-5.2-9.7-2.7c-7.4,3.8-15.1,6.8-23.7,6.9
				c-7.6,0.1-9.8-3.2-7.4-10.4c4.5-13.1,14.5-20.2,29.7-20.6c14.7-0.3,28.6,3.3,41.8,9.6c1.1,0.5,2.6,0.8,2.8,2.7
				C603.5,25.5,597.5,38.3,591.3,51.7z"/>
			<path d="M660.6,84.1c-3.9,6.8-7.2,14.4-17.3,14.5c-2.5,0-2.2,2.2-2.7,3.6c-1.9,6.2-4.3,12.1-8.4,17.2c-4.1,5.1-9,6.9-13.9,5.3
				c-5.2-1.7-8.4-6.1-8.9-12.5c-0.4-5,3.1-10.5,1.5-14.4c-1.6-3.9-6.6-6.6-8.5-11.2c-0.4-1-1.5-1.9-0.9-3.6c2.4,2.5,4.5,5.1,7,7.2
				c5.4,4.7,9.9,4.2,14.6-1.2c1-1.1,1.7-2.5,2.6-3.6c2.2-2.9,3.4-5-1.2-7.3c-3.8-1.9-6-5.8-5.1-10.4c0.8-4.1,5.4-7.3,10.9-8
				c5.7-0.7,11.8,2.5,13.5,7.2c1.6,4.3-0.4,9.2-6,12.2c-2.9,1.6-2.7,3-1.5,5.3c0.4,0.7,0.7,1.5,1.1,2.2c4.2,8.1,8.8,9.1,15.7,3.1
				c2.4-2,4.4-4.4,6.6-6.7C660,83.3,660.3,83.7,660.6,84.1z"/>
			<path fill="#202020" d="M622.1,49.5c-9,0.1-9.8,0.5-16.5,6.5c-0.2-4.3,1.3-7,4.9-8.8C614.6,45.1,618,46.2,622.1,49.5z"/>
			<path fill="#0C0C0C" d="M658.1,55.6c-4.5-3.2-8.9-5.7-14.4-7.4c3.3-2.8,6.3-2.9,9.5-1.4C656.6,48.5,658.3,51.3,658.1,55.6z"/>
			<g>
				<path fill="#FF8001" d="M461.8,97.1c-2.2-7.5-4.3-14.9-6.4-22.4c-0.6-2-2.3-4.3-0.2-6c2-1.7,4.1,0.4,6,1.2
					c6.7,2.8,13.4,5.8,20.1,8.8c1.5,0.7,2.9,1.6,4.7,1.2c-3.1,7.1-6.6,13.7-14.8,16.2C468,97,464.9,96.7,461.8,97.1z"/>
				<path fill="#FF8001" d="M520.3,66.5c3.6-7.1,7.2-14.2,10.9-21.2c1.6-2.9,3.6-3,5,0.1C539.8,54,544,62.3,547,71
					C536.1,75.9,527.5,74.4,520.3,66.5z"/>
				<g>
					<path fill="#161617" d="M461.8,97.1c2,9.1,8.1,16.2,12.1,24.4c1.2,2.5,2.5,1.3,3.9,0.3c4.2-3,8.8-5.3,13.6-7.2
						c1-0.4,2.4-1.4,3-0.1c0.9,1.8-1.1,2-2.2,2.5c-11.2,5-21.4,11.5-28.6,21.7c-0.5,0.8-1.2,1.9-2.3,1.1c-1.1-0.7-0.5-1.9,0.2-2.6
						c2.5-3,5-6.2,7.9-8.9c1.9-1.8,2.6-3,0.9-5.3c-10.5-14.8-14.6-32-19.3-49c-0.8-3.1-1.2-5.9,1.3-8.3c2.8-2.6,5.8-1.6,8.8-0.2
						c6.8,3,13.7,5.9,20.5,9.1c2.3,1.1,4.3,1.2,6.7,0.4c8-2.8,16-5.5,24.1-8.1c2.9-0.9,4.6-2.6,6-5.3c3-6.1,6.3-12,9.4-18
						c1.3-2.6,3-4.3,6.1-4.3c3.1,0,4.9,1.8,6,4.4c6.9,16.2,16.3,31.6,14.5,50.3c-0.3,2.8,0.7,3.6,3.5,3.7c4.3,0.1,8.6,1,12.7,2.3
						c1.1,0.4,2,1,1.7,2c-0.4,1.3-1.7,0.8-2.5,0.5c-12.2-3.8-24.3-2.7-36.5,0.2c-1,0.2-2.4,1.3-2.9-0.4c-0.4-1.6,1.2-1.7,2.3-2
						c5.8-1.7,11.7-2.4,18-2.9c-1.4-8.8,1-18-3.6-26.3c-4.5-5.8-6.1-13.1-9.5-19.5c-0.4-0.7-0.5-1.6-0.9-2.3
						c-0.7-1.5-1.2-3.4-3.1-3.5c-1.8-0.1-2,1.9-2.8,3.1c-2.5,4.3-4.5,8.8-6.8,13.2c-0.9,1.7-1.5,3.7-3.7,4.4
						c-1.6,2.2-3.9,3.1-6.3,3.9c-9.4,3.1-18.7,6.3-28,9.5c-2.2,1.4-4.1,0.4-6.1-0.5c-6.7-2.9-13.3-5.9-20-8.7
						c-1-0.4-2.2-1.3-3.3-0.5c-1.3,1-0.6,2.5-0.2,3.7c1.9,5.8,3.1,11.8,5,17.6C461.9,93.2,463,95.1,461.8,97.1z"/>
					<path fill="#1A1A1A" d="M514.5,111.3c-2.4,1.7-8.7,0.8-10-1.6c-1.5-2.7,0.5-4.3,2.3-5.7c3.3-2.5,9.4-3,11.1-1
						C519.5,104.9,517.8,109.1,514.5,111.3z"/>
					<path fill="#232323" d="M496.3,118.9c-0.8,2.2-2.7,2.5-4.3,3.3c-7.7,3.6-13.9,8.8-18.4,16c-0.8,1.2-1.4,3.5-2.9,2.6
						c-2-1.2,0-2.9,0.8-4.2c5.1-8.5,12.7-14.2,21.7-18.1C494.1,118.1,495.1,117.9,496.3,118.9z"/>
					<path fill="#1E1E1E" d="M564.9,106.8c0.6,0.5,0.6,1.2,0.2,1.8c-0.8,1-1.8,0.4-2.7,0c-5.6-2.4-11.5-3.4-17.6-3
						c-3.6,0.2-7.2,1-10.8,1.6c-1,0.2-2.1,0.3-2.4-1c-0.1-0.4,0.6-1.1,1.1-1.4c5.6-3.4,26.9-2.2,31.7,1.7
						C564.6,106.6,564.8,106.7,564.9,106.8z"/>
					<path fill="#363636" d="M479.5,107.8c0.6-9.5,6.8-13.3,16.2-9.7C487.8,97.2,482.6,100.9,479.5,107.8z"/>
					<path fill="#232323" d="M519.3,88.2c4.1-5.7,10.1-5.8,17.2,0.3C529.9,86.3,524.5,85.3,519.3,88.2z"/>
				</g>
			</g>
			<path fill="#323232" d="M649.4,81.8c-0.1,1.4-0.7,2.1-1.8,2.2c-1.2,0.1-1.9-0.7-2-1.7c-0.1-1.1,0.7-1.9,1.7-2
				C648.4,80.3,649,81.2,649.4,81.8z"/>
			<path fill="#353535" d="M613.5,86.8c1,0.2,1.9,0.7,1.7,1.9c-0.2,1.1-1.1,1.6-2.2,1.4c-0.8-0.2-1.5-0.8-1.5-1.7
				C611.5,87.3,612.4,86.8,613.5,86.8z"/>
			<path fill="#252525" d="M614.6,80.4c0.8,0.3,1.6,0.7,1.6,1.7c0,1.2-0.6,1.9-1.7,1.9c-0.9,0-1.5-0.7-1.6-1.6
				C612.8,81.2,613.6,80.7,614.6,80.4z"/>
			<path fill="#252525" d="M620.1,85.1c0.8,0.3,1.6,0.7,1.6,1.7c0,1.2-0.6,1.9-1.7,1.9c-0.9,0-1.5-0.7-1.6-1.6
				C618.3,85.9,619.1,85.3,620.1,85.1z"/>
			<path fill="#2A2A2A" d="M644.8,88.6c-0.3,1.2-1.1,1.7-2.2,1.5c-0.9-0.1-1.4-0.9-1.4-1.8c0.1-1.3,1.1-1.6,2.1-1.4
				C644.3,87,644.7,87.7,644.8,88.6z"/>
			<path fill="#FF8001" d="M648.8,127.4c3.8-8.3,10.9-11.3,19.4-11.4c9.1-0.1,17,3,21.4,11.7c-2.5,4.2-7.1,4.4-11.2,5.4
				c-8,1.9-16.1,1.6-23.8-1.4C652.4,130.8,650,129.9,648.8,127.4z"/>
			<path fill="#FF8001" d="M563.4,128.9c4.5-8.1,12.2-11,20.8-10.7c8,0.2,15.2,2.9,19.1,10.9c-5.2,5.6-12.3,6.2-19.1,6.7
				c-5.7,0.4-11.5-0.9-16.9-3.3C565.5,131.8,564,130.8,563.4,128.9z"/>
			<path fill="#FDFDFD" d="M563.4,128.9c13.3,8,26.6,6.6,39.9,0.1c3.1,6.5,2.4,8.3-4.2,9.6c-3.8,0.8-7.3,2.1-10.2,4.8
				c-3,2.8-6.3,3.2-10.1,1.6c-3.2-1.4-6.3-2.8-9.8-3.5C560.7,139.6,559.6,137,563.4,128.9z"/>
			<path fill="#FDFDFC" d="M648.8,127.4c13.5,7.7,27.2,7.1,40.8,0.3c1.2,1.7,1.4,3.6,1.6,5.6c0.2,3.1-0.9,4.6-4.1,4.7
				c-5,0.2-9.8,1.4-14,4.4c-2.7,2-5.6,1.5-8.4,0c-3.6-2-7.2-4.1-11.1-5.5C647.5,134.9,647.1,133.9,648.8,127.4z"/>
			<path fill="#FCFCFC" d="M614.6,107.3c0-1.5-0.2-3,0.8-4.3c0.9-1.2,1.8-2.6,3.5-2.4c1.5,0.2,2,1.8,2.2,3c0.7,4.6,2.1,3.5,4.1,0.7
				c1.7-2.5,3.9-4.6,6.9-5.5c3-0.9,4.4,0.1,4.5,3.3c0.1,5.4-5.5,13.2-10.8,14.9C619.2,119,614.6,115.1,614.6,107.3z"/>
			<path fill="#323232" d="M652.2,87.3c-0.1,1.4-0.7,2.1-1.8,2.2c-1.2,0.1-1.9-0.7-2-1.7c-0.1-1.1,0.7-1.9,1.7-2
				C651.3,85.8,651.8,86.7,652.2,87.3z"/>
		</g>
		<g>
			<g>
				<g>
					<path fill="#5280B2" d="M97.4,111l-1.9,14.5c-0.7-0.2-1.3-0.3-2-0.4c-0.7-0.1-1.3-0.1-2-0.1c-1.7,0-3.3,0.2-4.9,0.7
						c-1.5,0.4-2.9,1.1-4.1,2.1c-1.2,0.9-2.1,2.1-2.8,3.4c-0.7,1.4-1.1,3-1.1,4.9c0,1.2,0.2,2.2,0.6,3.1c0.4,0.9,0.9,1.6,1.6,2.2
						c0.7,0.6,1.5,1,2.5,1.3c0.9,0.3,2,0.4,3.1,0.4c0.9,0,1.7-0.1,2.7-0.3c0.9-0.2,1.8-0.4,2.7-0.7c0.9-0.3,1.8-0.6,2.6-1
						c0.9-0.4,1.6-0.8,2.4-1.2L95.3,156c-0.9,0.5-1.9,0.9-2.9,1.2c-1.1,0.4-2.1,0.7-3.2,0.9s-2.2,0.5-3.3,0.6
						c-1.1,0.1-2.2,0.2-3.2,0.2c-2.9,0-5.7-0.5-8.2-1.6c-2.5-1.1-4.7-2.6-6.6-4.4c-1.9-1.9-3.3-4.1-4.4-6.7
						c-1.1-2.6-1.6-5.3-1.6-8.3c0-3.9,0.6-7.6,1.7-11.1c1.1-3.5,2.8-6.5,5-9.1c2.2-2.6,4.9-4.7,8.2-6.2c3.2-1.5,7-2.3,11.2-2.3
						c1.6,0,3.2,0.1,4.9,0.4C94.4,109.9,96,110.3,97.4,111z"/>
					<path fill="#5280B2" d="M143.3,156.5l-17.2,2.2l-2.1-7.8h-7.9l-1.7,7.8L96.7,157l13.8-45.9l19.3-1L143.3,156.5z M122.8,140.4
						l-2.6-12l-2.6,12H122.8z"/>
					<path fill="#5280B2" d="M180.7,110.2l-0.3,14.6l-10.3,0.4l-2.6,32.7l-14.6,0.8l0.1-32.7l-10.3,0.6l0.4-16.3L180.7,110.2z"/>
					<path fill="#5280B2" d="M183.2,140.5l-0.1-10.3l22.4-1l0.1,11.8L183.2,140.5z"/>
					<path fill="#5280B2" d="M249,132.1c0,3.2-0.4,6.1-1.2,8.7c-0.8,2.6-2,4.9-3.5,6.9c-1.5,2-3.3,3.7-5.3,5.2
						c-2.1,1.4-4.3,2.6-6.8,3.6c-2.5,0.9-5.1,1.6-7.8,2.1c-2.8,0.4-5.6,0.7-8.5,0.7c-1.1,0-2.1,0-3.2-0.1c-1-0.1-2.1-0.1-3.2-0.3
						l1-46.2c2.5-0.8,5.2-1.4,7.9-1.7c2.7-0.3,5.4-0.5,8-0.5c3.3,0,6.3,0.5,9.1,1.5c2.8,1,5.2,2.4,7.2,4.3c2,1.9,3.6,4.1,4.7,6.8
						S249,128.7,249,132.1z M234.8,134.3c0-1.2-0.1-2.4-0.4-3.6c-0.3-1.1-0.8-2.2-1.4-3.1c-0.7-0.9-1.5-1.6-2.5-2.1
						c-1-0.5-2.2-0.8-3.6-0.9l-1.4,21.4c1.4-0.2,2.6-0.7,3.8-1.4c1.1-0.7,2.1-1.6,2.9-2.6c0.8-1,1.5-2.2,1.9-3.4
						c0.5-1.3,0.7-2.5,0.7-3.9V134.3z"/>
					<path fill="#5280B2" d="M294,135.1c0,2.1-0.2,4.1-0.7,6c-0.5,1.9-1.2,3.8-2.1,5.5c-0.9,1.7-2,3.3-3.3,4.7
						c-1.3,1.4-2.8,2.6-4.4,3.6c-1.6,1-3.4,1.8-5.3,2.4c-1.9,0.6-4,0.8-6.1,0.8c-2.1,0-4.1-0.3-5.9-0.8c-1.9-0.5-3.6-1.3-5.3-2.2
						c-1.6-1-3.1-2.1-4.5-3.4c-1.3-1.3-2.5-2.8-3.4-4.5c-0.9-1.6-1.7-3.4-2.2-5.3c-0.5-1.9-0.8-3.8-0.8-5.9c0-2,0.2-4,0.7-5.9
						c0.5-1.9,1.2-3.7,2.1-5.4c0.9-1.7,2-3.3,3.3-4.7c1.3-1.4,2.7-2.7,4.4-3.7c1.6-1,3.3-1.8,5.2-2.4c1.9-0.6,3.8-0.9,5.9-0.9
						c3.4,0,6.4,0.5,9.2,1.6c2.8,1,5.1,2.5,7.1,4.4c2,1.9,3.5,4.2,4.5,7C293.4,128.8,294,131.8,294,135.1z M278.6,136
						c0-1-0.1-1.9-0.4-2.9c-0.3-0.9-0.7-1.8-1.3-2.5c-0.6-0.7-1.2-1.3-2.1-1.8c-0.8-0.4-1.8-0.7-2.8-0.7c-1.1,0-2.1,0.2-2.9,0.6
						c-0.9,0.4-1.6,0.9-2.2,1.6c-0.6,0.7-1.1,1.5-1.4,2.4c-0.3,0.9-0.5,1.9-0.5,2.9c0,1,0.1,1.9,0.4,2.9c0.3,1,0.7,1.8,1.2,2.6
						c0.6,0.8,1.2,1.4,2.1,1.9c0.8,0.5,1.8,0.7,2.9,0.7c1.1,0,2.1-0.2,2.9-0.6c0.9-0.4,1.6-1,2.2-1.7c0.6-0.7,1.1-1.6,1.4-2.5
						C278.4,138,278.6,137.1,278.6,136z"/>
					<path fill="#5280B2" d="M338.2,152.4c-1.1,1.4-2.4,2.5-4,3.5c-1.6,1-3.3,1.9-5.1,2.5c-1.8,0.7-3.7,1.2-5.6,1.5
						s-3.7,0.5-5.5,0.5c-3.4,0-6.4-0.6-9.3-1.8c-2.8-1.2-5.3-2.8-7.3-4.9c-2-2.1-3.6-4.6-4.8-7.4c-1.2-2.8-1.7-5.9-1.7-9.2
						c0-2.5,0.3-5,0.9-7.4c0.6-2.4,1.4-4.7,2.5-6.8c1.1-2.1,2.4-4.1,3.9-5.9c1.5-1.8,3.3-3.3,5.3-4.6c2-1.3,4.1-2.3,6.4-3
						c2.3-0.7,4.8-1.1,7.5-1.1c1,0,2.1,0,3.2,0.1c1.1,0.1,2.3,0.2,3.4,0.4c1.1,0.2,2.2,0.5,3.3,0.8s2,0.8,2.9,1.3l-1,13.2
						c-1.3-0.5-2.6-0.8-4-1c-1.4-0.2-2.7-0.3-4-0.3c-1.8,0-3.6,0.3-5.2,0.8c-1.6,0.6-3,1.4-4.2,2.4c-1.2,1.1-2.1,2.3-2.8,3.9
						c-0.7,1.5-1,3.2-1,5.1c0,1.2,0.2,2.3,0.5,3.5s0.8,2.1,1.5,3c0.7,0.9,1.5,1.6,2.5,2.1c1,0.5,2.1,0.8,3.4,0.8
						c0.9,0,1.8-0.1,2.7-0.3c0.9-0.2,1.7-0.6,2.4-1.2l0.1-2.7l-8.3-0.1l0.4-10.3c3.4-0.1,6.9-0.2,10.3-0.3c3.4-0.1,6.9-0.2,10.4-0.3
						L338.2,152.4z"/>
				</g>
			</g>
			<g>
				<path fill="#48709C" d="M319.5,81.1c10.4-12.4,9.4-30.3-2-40.7c-3.9-3.5-8.1-5.5-12.4-2.1c-4.2,3.3-4.5,8.9-0.5,13.6
					c2,2.4,3.7,4.7,4.2,7.8c1.3,8.8-2.4,16.2-9.5,18.6c-6.6,2.3-18-1.2-23.3-7.6c-5.8-7.1-9.2-14.5-10.3-22.1
					c-1.6,0.1-3.2-0.2-4.7-0.8c-0.5-0.2-1-0.4-1.5-0.7c0.5,6.6,1.7,13.3,4,20c4,11.9,12.1,19.8,24.5,23
					C301,93.4,311.7,90.5,319.5,81.1z"/>
				<path fill="#48709C" d="M134,3.6l1,37.5c0,1.7,1.9,2.6,3.3,1.8l32.2-19.6c1.4-0.9,1.4-2.9-0.1-3.7L137.2,1.7
					C135.7,0.9,134,2,134,3.6z"/>
				<path fill="#48709C" d="M200.4,0.3L166.4,21c-1.4,0.9-1.4,2.9,0.1,3.7l35,18.9c1.5,0.8,3.2-0.3,3.2-1.9l-1-39.5
					C203.6,0.4,201.8-0.5,200.4,0.3z"/>
				<path fill="#5280B2" d="M129.4,27.3l-27,36.2h26l-0.4,24.8l-52.5,2.1l-2.4-22.9L104,27.6l-28.1,2.1L75.6,6.2h52.8L129.4,27.3z"
					/>
				<path fill="#5280B2" d="M207,50.2c0,3.6-0.4,7-1.2,10.3c-0.8,3.3-2,6.4-3.6,9.3s-3.4,5.5-5.7,7.9c-2.2,2.4-4.7,4.5-7.5,6.2
					c-2.8,1.7-5.8,3.1-9,4c-3.3,1-6.7,1.4-10.4,1.4c-3.5,0-6.9-0.4-10.1-1.3c-3.2-0.9-6.2-2.2-9-3.8c-2.8-1.6-5.3-3.6-7.6-5.9
					c-2.3-2.3-4.2-4.8-5.8-7.6c-1.6-2.8-2.8-5.8-3.7-9s-1.3-6.5-1.3-10c0-3.4,0.4-6.7,1.2-10c0.8-3.3,2-6.3,3.6-9.2
					c1.6-2.9,3.4-5.5,5.6-8c2.2-2.4,4.7-4.5,7.4-6.3c2.7-1.8,5.7-3.1,8.9-4.1c3.2-1,6.5-1.5,10.1-1.5c5.7,0,10.9,0.9,15.6,2.6
					c4.7,1.8,8.7,4.3,12,7.5c3.3,3.3,5.9,7.2,7.7,11.8C206.1,39.4,207,44.5,207,50.2z M180.9,51.8c0-1.7-0.2-3.3-0.7-4.9
					c-0.5-1.6-1.2-3-2.1-4.2c-0.9-1.2-2.1-2.2-3.5-3c-1.4-0.8-3-1.1-4.8-1.1c-1.8,0-3.5,0.3-4.9,1c-1.5,0.7-2.7,1.6-3.7,2.7
					c-1,1.2-1.8,2.5-2.4,4c-0.6,1.5-0.8,3.2-0.8,4.9c0,1.6,0.2,3.3,0.7,4.9s1.2,3.1,2.1,4.4c0.9,1.3,2.1,2.4,3.5,3.2
					c1.4,0.8,3,1.2,4.9,1.2c1.8,0,3.5-0.4,5-1.1c1.5-0.7,2.7-1.7,3.7-2.9c1-1.2,1.8-2.6,2.4-4.2C180.6,55.1,180.9,53.5,180.9,51.8z"
					/>
				<path fill="#5280B2" d="M283.9,50.2c0,3.6-0.4,7-1.2,10.3c-0.8,3.3-2,6.4-3.6,9.3c-1.6,2.9-3.4,5.5-5.7,7.9
					c-2.2,2.4-4.7,4.5-7.5,6.2c-2.8,1.7-5.8,3.1-9,4c-3.3,1-6.7,1.4-10.4,1.4c-3.5,0-6.9-0.4-10.1-1.3c-3.2-0.9-6.2-2.2-9-3.8
					c-2.8-1.6-5.3-3.6-7.6-5.9c-2.3-2.3-4.2-4.8-5.8-7.6c-1.6-2.8-2.8-5.8-3.7-9c-0.9-3.2-1.3-6.5-1.3-10c0-3.4,0.4-6.7,1.2-10
					c0.8-3.3,2-6.3,3.6-9.2c1.6-2.9,3.4-5.5,5.6-8c2.2-2.4,4.7-4.5,7.4-6.3c2.7-1.8,5.7-3.1,8.9-4.1c3.2-1,6.5-1.5,10.1-1.5
					c5.7,0,10.9,0.9,15.6,2.6c4.7,1.8,8.7,4.3,12,7.5c3.3,3.3,5.9,7.2,7.7,11.8C283,39.4,283.9,44.5,283.9,50.2z M257.8,51.8
					c0-1.7-0.2-3.3-0.7-4.9c-0.5-1.6-1.2-3-2.1-4.2c-0.9-1.2-2.1-2.2-3.5-3c-1.4-0.8-3-1.1-4.8-1.1c-1.8,0-3.5,0.3-4.9,1
					c-1.5,0.7-2.7,1.6-3.7,2.7c-1,1.2-1.8,2.5-2.4,4c-0.6,1.5-0.8,3.2-0.8,4.9c0,1.6,0.2,3.3,0.7,4.9s1.2,3.1,2.1,4.4
					c0.9,1.3,2.1,2.4,3.5,3.2c1.4,0.8,3,1.2,4.9,1.2c1.8,0,3.5-0.4,5-1.1c1.5-0.7,2.7-1.7,3.7-2.9c1-1.2,1.8-2.6,2.4-4.2
					C257.5,55.1,257.8,53.5,257.8,51.8z"/>
			</g>
		</g>
	</g>
	<g>
		<path d="M71.3,174.1l-0.2,8.2l-5.8,0.2l-1.5,18.4l-8.2,0.4l0-18.4l-5.8,0.3l0.2-9.1L71.3,174.1z"/>
		<path d="M96.5,186.9c0,1.2-0.1,2.3-0.4,3.4c-0.3,1.1-0.7,2.1-1.2,3.1c-0.5,1-1.1,1.8-1.9,2.6c-0.7,0.8-1.6,1.5-2.5,2
			c-0.9,0.6-1.9,1-3,1.3c-1.1,0.3-2.2,0.5-3.4,0.5c-1.2,0-2.3-0.1-3.3-0.4c-1.1-0.3-2.1-0.7-3-1.3c-0.9-0.5-1.8-1.2-2.5-1.9
			s-1.4-1.6-1.9-2.5c-0.5-0.9-0.9-1.9-1.2-3c-0.3-1.1-0.4-2.2-0.4-3.3c0-1.1,0.1-2.2,0.4-3.3c0.3-1.1,0.7-2.1,1.2-3.1
			c0.5-1,1.1-1.8,1.9-2.6s1.5-1.5,2.4-2.1c0.9-0.6,1.9-1,2.9-1.4c1.1-0.3,2.2-0.5,3.3-0.5c1.9,0,3.6,0.3,5.2,0.9
			c1.6,0.6,2.9,1.4,4,2.5c1.1,1.1,1.9,2.4,2.6,3.9C96.2,183.4,96.5,185.1,96.5,186.9z M87.8,187.4c0-0.6-0.1-1.1-0.2-1.6
			s-0.4-1-0.7-1.4c-0.3-0.4-0.7-0.7-1.2-1s-1-0.4-1.6-0.4c-0.6,0-1.2,0.1-1.6,0.3s-0.9,0.5-1.2,0.9c-0.3,0.4-0.6,0.8-0.8,1.3
			c-0.2,0.5-0.3,1.1-0.3,1.6c0,0.5,0.1,1.1,0.2,1.6c0.2,0.5,0.4,1,0.7,1.5s0.7,0.8,1.2,1.1c0.5,0.3,1,0.4,1.6,0.4s1.2-0.1,1.6-0.4
			c0.5-0.2,0.9-0.6,1.2-1c0.3-0.4,0.6-0.9,0.8-1.4C87.7,188.6,87.8,188,87.8,187.4z"/>
		<path d="M120.5,194.9c0,1.1-0.2,2-0.6,2.8s-0.9,1.4-1.6,2c-0.7,0.5-1.4,1-2.3,1.3c-0.9,0.3-1.8,0.6-2.7,0.8s-1.9,0.3-2.8,0.4
			s-1.8,0.1-2.6,0.1c-0.8,0-1.6,0-2.5-0.1c-0.9-0.1-1.7-0.2-2.6-0.3s-1.7-0.3-2.5-0.6c-0.8-0.2-1.6-0.5-2.4-0.9l0-25
			c0.7-0.3,1.5-0.6,2.3-0.8c0.8-0.2,1.7-0.4,2.5-0.6s1.7-0.3,2.5-0.4c0.8-0.1,1.7-0.1,2.5-0.1c0.9,0,1.9,0.1,2.8,0.2
			c0.9,0.1,1.8,0.3,2.7,0.6c0.9,0.3,1.7,0.6,2.4,1.1c0.8,0.4,1.4,1,2,1.6c0.6,0.6,1,1.4,1.3,2.2c0.3,0.8,0.5,1.8,0.5,2.9
			c0,0.7-0.1,1.4-0.3,2c-0.2,0.6-0.5,1.2-0.9,1.7c-0.4,0.5-0.9,0.9-1.4,1.3s-1.2,0.6-1.9,0.8c0.8,0.2,1.6,0.5,2.3,1
			c0.7,0.4,1.3,0.9,1.8,1.6c0.5,0.6,0.9,1.3,1.1,2.1C120.4,193.2,120.5,194,120.5,194.9z M107.9,190.2c-0.4,0-0.7,0-1.1,0.1
			l-0.1,4.4c0.2,0,0.4,0.1,0.6,0.1s0.4,0,0.6,0c0.3,0,0.6,0,0.9-0.1c0.3-0.1,0.6-0.2,0.9-0.3c0.3-0.2,0.5-0.4,0.7-0.7
			s0.3-0.7,0.3-1.2c0-0.5-0.1-0.9-0.3-1.2s-0.4-0.6-0.7-0.7s-0.6-0.3-0.9-0.3S108.1,190.2,107.9,190.2z M110.6,183.8
			c0-0.4-0.1-0.7-0.2-1c-0.2-0.3-0.3-0.5-0.6-0.6c-0.2-0.2-0.5-0.3-0.7-0.4c-0.3-0.1-0.5-0.1-0.7-0.1c-0.3,0-0.5,0-0.8,0.1
			c-0.2,0.1-0.5,0.2-0.7,0.3l-0.1,4.3c0.3,0,0.7,0,1.1-0.1s0.9-0.2,1.3-0.3s0.8-0.4,1-0.8C110.5,184.9,110.6,184.4,110.6,183.8z"/>
		<path d="M146.2,200.1l-9.7,1.2l-1.2-4.4h-4.4l-1,4.4l-9.9-1l7.8-25.8l10.8-0.5L146.2,200.1z M134.6,191.1l-1.5-6.7l-1.4,6.7H134.6
			z"/>
		<path d="M169.3,183.9c0,1.3-0.2,2.4-0.6,3.3c-0.4,1-0.9,1.8-1.6,2.5c-0.7,0.7-1.4,1.3-2.3,1.8c-0.9,0.5-1.8,0.9-2.8,1.2
			c-1,0.3-2.1,0.5-3.1,0.7c-1.1,0.1-2.1,0.2-3.2,0.2v8.3h-9.1c0-1.5,0-2.9,0-4.3c0-1.4,0-2.8,0-4.2c0-1.4,0-2.8,0-4.2s0-2.8,0-4.3
			c0-1.6,0-3.2,0-4.7c0-1.6,0-3.2,0.1-4.8c1.7-0.5,3.3-0.9,5-1.1s3.4-0.4,5.1-0.4c1,0,2,0.1,3,0.2s2,0.4,2.9,0.8
			c0.9,0.3,1.8,0.8,2.6,1.3c0.8,0.5,1.5,1.1,2,1.9c0.6,0.7,1,1.6,1.4,2.5S169.3,182.8,169.3,183.9z M160.6,184.6
			c0-0.8-0.3-1.5-0.8-2c-0.5-0.5-1.2-0.7-2-0.7c-0.3,0-0.6,0-0.8,0.1c-0.3,0-0.6,0.1-0.8,0.2l-0.2,5.7c0.2,0,0.4,0,0.5,0
			c0.2,0,0.3,0,0.5,0c0.5,0,0.9-0.1,1.4-0.2c0.4-0.2,0.8-0.4,1.2-0.7c0.3-0.3,0.6-0.6,0.8-1C160.5,185.5,160.6,185.1,160.6,184.6z"
			/>
		<path d="M192.6,195.4c-0.3,0.9-0.8,1.8-1.4,2.5c-0.6,0.7-1.3,1.3-2,1.9c-0.8,0.5-1.6,1-2.6,1.3c-0.9,0.3-1.9,0.6-2.9,0.8
			c-1,0.2-2,0.2-3,0.2c-1.8,0-3.5-0.1-5.1-0.4c-1.7-0.2-3.3-0.6-5-1.1c-0.1-1.6-0.1-3.2-0.1-4.8c0-1.6,0-3.2,0-4.7
			c0-1.5,0-2.9,0-4.3c0-1.4,0-2.8,0-4.2s0-2.8,0-4.2c0-1.4,0-2.8,0-4.3h9.1v8.3c1,0,2.1,0.1,3.2,0.2c1.1,0.1,2.1,0.4,3.1,0.7
			c1,0.3,2,0.7,2.8,1.2c0.9,0.5,1.7,1.1,2.3,1.8c0.7,0.7,1.2,1.6,1.6,2.5c0.4,1,0.6,2.1,0.6,3.3C193.1,193.4,193,194.5,192.6,195.4z
			 M184.2,190.3c-0.2-0.4-0.5-0.7-0.8-1c-0.3-0.3-0.7-0.5-1.2-0.7c-0.4-0.2-0.9-0.2-1.4-0.2c-0.2,0-0.4,0-0.5,0c-0.2,0-0.3,0-0.5,0
			l0.2,5.7c0.3,0.1,0.5,0.1,0.8,0.2c0.3,0,0.6,0.1,0.8,0.1c0.8,0,1.5-0.2,2-0.7c0.5-0.5,0.8-1.1,0.8-2
			C184.5,191.1,184.4,190.7,184.2,190.3z M205,174.5l-2.1,26.4l-8.2,0.4V175L205,174.5z"/>
		<path d="M218.8,194.5c1.5-1.7,2.3-2.7,2.4-3c0.2-0.5,0.4-1.2,0.8-2c0.4-0.9,0.7-3.1,1-6.7s0.4-6.4,0.2-8.5l1.1-0.1l0-0.4h3.8
			l1.8-0.1c0,0,0,0.1,0,0.1H243l0.4,20.6l3.5-0.2l-2.2,13.2l-8-0.2l0.6-5.6h-12.9l0.6,5.6l-8,0.2l-2.2-13.2l4.5,0.2v-0.1H218.8z
			 M227.5,194.5l3.2,0l3.7,0v-13l-2-0.1l-0.4-0.2C231,186.1,229.5,190.6,227.5,194.5z"/>
		<path d="M260.5,186v2.1c0,0.7,0,1.5-0.1,2.3c-0.1,1.6-0.5,3.1-1.1,4.6c-0.6,1.4-1.3,2.7-2.3,3.8c-1,1.1-2.1,1.9-3.5,2.6
			c-1,0.4-2,0.7-3.2,0.9l-2-8.3c0.3-0.1,0.6-0.1,0.9-0.3c0.5-0.2,0.9-0.5,1.2-0.9c0.3-0.4,0.6-0.8,0.8-1.3c0.2-0.5,0.3-1,0.4-1.6
			s0.1-1.1,0.2-1.7c0-0.6,0-1.2,0-1.7v-0.1h-0.3l0.2-4.1c-0.1-0.6-0.1-1.3-0.2-1.9c-0.2-2-0.4-4.1-0.5-6.1l1.1-0.1l0-0.4h6l1.8-0.1
			c0,0,0,0.1,0,0.1H273l0.6,28l-9-0.2v-20.1l-2-0.1l-2,0.1v4.8L260.5,186z"/>
		<path d="M277.4,178.9c0.7-1.2,1.6-2.2,2.7-3c1.1-0.8,2.4-1.4,3.8-1.8c1.4-0.4,2.9-0.6,4.3-0.6c1,0,1.9,0,2.8,0.1
			c0.9,0,1.8,0.1,2.7,0.3c0.9,0.1,1.8,0.3,2.6,0.5c0.9,0.2,1.8,0.5,2.7,0.8c0,1.5-0.1,3-0.1,4.4c-0.1,1.5-0.1,2.9-0.2,4.4
			c-0.1,2.9-0.2,5.9-0.3,8.8s-0.2,5.9-0.4,8.8h-8.4l0.2-8.1l-2.4-0.1l-3.5,8.3l-8.7-1.7l5.1-8.2c-0.8-0.5-1.5-1.1-2.1-1.7
			s-1-1.2-1.3-1.9s-0.6-1.4-0.7-2.3c-0.1-0.8-0.2-1.7-0.1-2.7C276.2,181.5,276.6,180.1,277.4,178.9z M285.2,185.4
			c0.3,0.5,0.6,0.8,1.1,1.1c0.4,0.3,0.9,0.5,1.5,0.7s1.1,0.2,1.7,0.2h0.5l0.1-7.2c-0.2-0.1-0.5-0.1-0.7-0.1c-0.2,0-0.5,0-0.8,0
			c-0.6,0-1.1,0.1-1.5,0.3c-0.4,0.2-0.8,0.4-1.1,0.8c-0.3,0.3-0.6,0.7-0.7,1.2c-0.2,0.5-0.3,0.9-0.3,1.5
			C284.8,184.4,284.9,184.9,285.2,185.4z"/>
		<path d="M320.6,186v2.1c0,0.7,0,1.5-0.1,2.3c-0.1,1.6-0.5,3.1-1.1,4.6c-0.6,1.4-1.3,2.7-2.3,3.8c-1,1.1-2.1,1.9-3.5,2.6
			c-1,0.4-2,0.7-3.2,0.9l-2-8.3c0.3-0.1,0.6-0.1,0.9-0.3c0.5-0.2,0.9-0.5,1.2-0.9s0.6-0.8,0.8-1.3c0.2-0.5,0.3-1,0.4-1.6
			s0.1-1.1,0.2-1.7s0-1.2,0-1.7v-0.1h-0.3l0.2-4.1c-0.1-0.6-0.1-1.3-0.2-1.9c-0.2-2-0.4-4.1-0.5-6.1l1.1-0.1l0-0.4h6l1.8-0.1
			c0,0,0,0.1,0,0.1h13.1l0.6,28l-9-0.2v-20.1l-2-0.1l-2,0.1v4.8L320.6,186z"/>
		<path d="M347.8,185.6c0-0.1,0-0.2,0.1-0.3c0.3-1.1,0.7-2.1,1.2-3c0.5-1,1.1-1.8,1.9-2.6s1.5-1.5,2.4-2.1s1.9-1,2.9-1.4
			c1.1-0.3,2.2-0.5,3.3-0.5c1.9,0,3.6,0.3,5.2,0.9c1.6,0.6,2.9,1.4,4,2.5c1.1,1.1,2,2.4,2.6,3.9c0.6,1.5,0.9,3.2,0.9,5.1
			c0,1.2-0.1,2.3-0.4,3.4c-0.3,1.1-0.7,2.1-1.2,3.1c-0.5,1-1.1,1.8-1.9,2.6c-0.7,0.8-1.6,1.5-2.5,2c-0.9,0.6-1.9,1-3,1.3
			c-1.1,0.3-2.2,0.5-3.4,0.5c-1.2,0-2.3-0.1-3.3-0.4c-1.1-0.3-2.1-0.7-3-1.3c-0.9-0.5-1.8-1.2-2.5-1.9s-1.4-1.6-1.9-2.5
			c-0.5-0.9-0.9-1.9-1.2-3c-0.1-0.3-0.2-0.6-0.2-0.9l-3.4,0.1l-0.8,9.7l-8.2,0.4V175l10.4-0.5l-0.9,11.5L347.8,185.6z M363.6,188.6
			c0-0.6-0.1-1.1-0.2-1.6c-0.2-0.5-0.4-1-0.7-1.4c-0.3-0.4-0.7-0.7-1.2-1s-1-0.4-1.6-0.4c-0.6,0-1.2,0.1-1.6,0.3s-0.9,0.5-1.2,0.9
			s-0.6,0.8-0.8,1.3c-0.2,0.5-0.3,1.1-0.3,1.6c0,0.5,0.1,1.1,0.2,1.6c0.2,0.5,0.4,1,0.7,1.5s0.7,0.8,1.2,1.1s1,0.4,1.6,0.4
			s1.2-0.1,1.6-0.4c0.5-0.2,0.9-0.6,1.2-1c0.3-0.4,0.6-0.9,0.8-1.4C363.5,189.7,363.6,189.2,363.6,188.6z"/>
		<path d="M383.3,182.1v4.3c3-0.4,5.3-0.3,6.9,0.5c1.6,0.8,2.7,1.4,3.4,1.8c0.7,0.4,1.3,0.9,1.8,1.6c0.5,0.6,0.9,1.3,1.1,2.1
			c0.3,0.8,0.4,1.6,0.4,2.4c0,1.1-0.2,2-0.6,2.8s-0.9,1.4-1.6,2c-0.7,0.5-1.4,1-2.3,1.3c-0.9,0.3-1.8,0.6-2.7,0.8s-1.9,0.3-2.8,0.4
			c-0.9,0.1-1.8,0.1-2.6,0.1c-0.8,0-1.6,0-2.5-0.1c-0.9-0.1-1.7-0.2-2.6-0.3c-0.3-0.1-0.6-0.1-0.9-0.2l-4.8,0.1l0.6-28h6.1
			c0.5-0.1,1-0.1,1.5-0.2c0.8-0.1,1.7-0.1,2.5-0.1c0.3,0,0.5,0,0.8,0v0.3h7.1c-0.1,1.2-0.2,2.4-0.2,3.6c-0.1,1.2-0.1,2.4-0.3,3.6
			l-6.7,0.3v0.3h-0.2c-0.3,0-0.5,0-0.8,0.1C383.8,181.9,383.6,182,383.3,182.1z M383.3,190.2v4.5c0.1,0,0.2,0,0.4,0.1
			c0.2,0,0.4,0.1,0.5,0.1c0.3,0,0.6,0,0.9-0.1c0.3-0.1,0.6-0.2,0.9-0.3c0.3-0.2,0.5-0.4,0.7-0.7c0.2-0.3,0.3-0.7,0.3-1.2
			c0-0.5-0.1-0.9-0.3-1.2c-0.2-0.3-0.4-0.6-0.7-0.7s-0.6-0.3-0.9-0.3c-0.3-0.1-0.6-0.1-0.9-0.1C383.9,190.2,383.6,190.2,383.3,190.2
			z"/>
		<path d="M415.4,202l0.2-14.8l-9.1,14.3l-8.1,0.5l0.6-26.5l9.1-1.6l-0.5,13.6l8.9-13l7.9-0.7l0.2,27.5L415.4,202z"/>
		<path d="M457,173.5l-1.8,28.5l-8.9,0.4l0.1-15l-4,12.1H439l-3.1-10.8l0,12.6l-9,0.3l0.4-26.8l10-0.4l4,12.8l5.3-13.6H457z"/>
		<path d="M480.7,195.4c-0.3,0.9-0.8,1.8-1.4,2.5c-0.6,0.7-1.3,1.3-2,1.9s-1.6,1-2.6,1.3c-0.9,0.3-1.9,0.6-2.9,0.8
			c-1,0.2-2,0.2-3,0.2c-1.8,0-3.5-0.1-5.1-0.4c-1.7-0.2-3.3-0.6-5-1.1c-0.1-1.6-0.1-3.2-0.1-4.8c0-1.6,0-3.2,0-4.7
			c0-1.5,0-2.9,0-4.3c0-1.4,0-2.8,0-4.2c0-1.4,0-2.8,0-4.2c0-1.4,0-2.8,0-4.3h9.1v8.3c1,0,2.1,0.1,3.2,0.2c1.1,0.1,2.1,0.4,3.1,0.7
			c1,0.3,2,0.7,2.8,1.2c0.9,0.5,1.7,1.1,2.3,1.8c0.7,0.7,1.2,1.6,1.5,2.5c0.4,1,0.6,2.1,0.6,3.3C481.1,193.4,481,194.5,480.7,195.4z
			 M472.2,190.3c-0.2-0.4-0.5-0.7-0.8-1c-0.3-0.3-0.7-0.5-1.2-0.7c-0.4-0.2-0.9-0.2-1.4-0.2c-0.2,0-0.4,0-0.5,0c-0.2,0-0.3,0-0.5,0
			l0.2,5.7c0.3,0.1,0.5,0.1,0.8,0.2c0.3,0,0.6,0.1,0.8,0.1c0.8,0,1.5-0.2,2-0.7c0.5-0.5,0.8-1.1,0.8-2
			C472.5,191.1,472.4,190.7,472.2,190.3z M493,174.5l-2.1,26.4l-8.2,0.4V175L493,174.5z"/>
		<path d="M518.7,175.4l-7.6,12.4l6.9,11l-8.2,2.5l-3.9-7.5l-4.1,7.9l-8.4-3l7.2-11.2l-6.6-11l8.9-2.1l3.2,7l3.4-7L518.7,175.4z"/>
		<path d="M550.2,174.5l0.5,0l-0.7,8l5.7-8.1l9.4,2.3l-8.6,10.2l7.9,13.3l-9,1.6l-5.7-7.7l-0.2,7.6l-4.2-0.2l-4.2,0.2l0.2-7.6
			l-6.1,7.7l-9-1.6l8.6-13.3l-8.1-10.2l9.6-2.3l5.2,8.1l-0.3-8l0.5,0l0-0.5l4.3,0.2l4.3-0.2L550.2,174.5z"/>
		<path d="M582.6,202l0.2-14.8l-9.1,14.3l-8.1,0.5l0.6-26.5l9.1-1.6l-0.5,13.6l8.9-13l7.9-0.7l0.2,27.5L582.6,202z"/>
		<path d="M616.7,194.9c0,1.1-0.2,2-0.6,2.8c-0.4,0.8-0.9,1.4-1.6,2c-0.7,0.5-1.4,1-2.3,1.3c-0.9,0.3-1.8,0.6-2.7,0.8
			s-1.9,0.3-2.8,0.4c-0.9,0.1-1.8,0.1-2.6,0.1c-0.8,0-1.6,0-2.5-0.1c-0.9-0.1-1.7-0.2-2.6-0.3c-0.9-0.1-1.7-0.3-2.5-0.6
			s-1.6-0.5-2.4-0.9l0-25c0.7-0.3,1.5-0.6,2.3-0.8c0.8-0.2,1.7-0.4,2.5-0.6s1.7-0.3,2.5-0.4c0.8-0.1,1.7-0.1,2.5-0.1
			c0.9,0,1.9,0.1,2.8,0.2c0.9,0.1,1.8,0.3,2.7,0.6c0.9,0.3,1.7,0.6,2.4,1.1c0.8,0.4,1.4,1,2,1.6c0.6,0.6,1,1.4,1.3,2.2
			c0.3,0.8,0.5,1.8,0.5,2.9c0,0.7-0.1,1.4-0.3,2c-0.2,0.6-0.5,1.2-0.9,1.7c-0.4,0.5-0.9,0.9-1.4,1.3s-1.2,0.6-1.9,0.8
			c0.8,0.2,1.6,0.5,2.3,1c0.7,0.4,1.3,0.9,1.8,1.6c0.5,0.6,0.9,1.3,1.1,2.1C616.6,193.2,616.7,194,616.7,194.9z M604.1,190.2
			c-0.4,0-0.7,0-1.1,0.1l-0.1,4.4c0.2,0,0.4,0.1,0.6,0.1s0.4,0,0.6,0c0.3,0,0.6,0,0.9-0.1c0.3-0.1,0.6-0.2,0.9-0.3
			c0.3-0.2,0.5-0.4,0.7-0.7c0.2-0.3,0.3-0.7,0.3-1.2c0-0.5-0.1-0.9-0.3-1.2c-0.2-0.3-0.4-0.6-0.7-0.7s-0.6-0.3-0.9-0.3
			C604.6,190.2,604.3,190.2,604.1,190.2z M606.8,183.8c0-0.4-0.1-0.7-0.2-1c-0.2-0.3-0.3-0.5-0.6-0.6c-0.2-0.2-0.5-0.3-0.7-0.4
			c-0.3-0.1-0.5-0.1-0.7-0.1c-0.3,0-0.5,0-0.8,0.1c-0.2,0.1-0.5,0.2-0.7,0.3l-0.1,4.3c0.3,0,0.7,0,1.1-0.1c0.4-0.1,0.9-0.2,1.3-0.3
			c0.4-0.2,0.8-0.4,1-0.8C606.7,184.9,606.8,184.4,606.8,183.8z"/>
		<path d="M641.9,186.9c0,1.2-0.1,2.3-0.4,3.4c-0.3,1.1-0.7,2.1-1.2,3.1c-0.5,1-1.1,1.8-1.9,2.6c-0.7,0.8-1.6,1.5-2.5,2
			c-0.9,0.6-1.9,1-3,1.3c-1.1,0.3-2.2,0.5-3.4,0.5c-1.2,0-2.3-0.1-3.3-0.4c-1.1-0.3-2.1-0.7-3-1.3c-0.9-0.5-1.8-1.2-2.5-1.9
			c-0.7-0.8-1.4-1.6-1.9-2.5c-0.5-0.9-0.9-1.9-1.2-3c-0.3-1.1-0.4-2.2-0.4-3.3c0-1.1,0.1-2.2,0.4-3.3c0.3-1.1,0.7-2.1,1.2-3.1
			s1.1-1.8,1.9-2.6c0.7-0.8,1.5-1.5,2.4-2.1c0.9-0.6,1.9-1,2.9-1.4c1.1-0.3,2.2-0.5,3.3-0.5c1.9,0,3.6,0.3,5.2,0.9s2.9,1.4,4,2.5
			c1.1,1.1,1.9,2.4,2.6,3.9C641.6,183.4,641.9,185.1,641.9,186.9z M633.2,187.4c0-0.6-0.1-1.1-0.2-1.6s-0.4-1-0.7-1.4
			c-0.3-0.4-0.7-0.7-1.2-1c-0.5-0.3-1-0.4-1.6-0.4c-0.6,0-1.2,0.1-1.6,0.3c-0.5,0.2-0.9,0.5-1.2,0.9c-0.3,0.4-0.6,0.8-0.8,1.3
			c-0.2,0.5-0.3,1.1-0.3,1.6c0,0.5,0.1,1.1,0.2,1.6c0.2,0.5,0.4,1,0.7,1.5c0.3,0.4,0.7,0.8,1.2,1.1c0.5,0.3,1,0.4,1.6,0.4
			s1.2-0.1,1.6-0.4c0.5-0.2,0.9-0.6,1.2-1c0.3-0.4,0.6-0.9,0.8-1.4C633.1,188.6,633.2,188,633.2,187.4z"/>
		<path d="M663.9,174.5l-0.2,8.2l-5.8,0.2l-0.7,18l-8.2,0.4l-0.7-18l-5.8,0.3l0.2-9.1L663.9,174.5z"/>
		<path d="M688.2,201l-9.8,0.5l-0.1-8.2h-4.5l-0.3,8.5h-8.7l0.7-27.3l9.3,0.4l-0.6,13.9h4.3l0-14.6l8.9,0.2L688.2,201z"/>
		<path d="M712.2,195.4c-0.3,0.9-0.8,1.8-1.4,2.5c-0.6,0.7-1.3,1.3-2,1.9s-1.6,1-2.6,1.3c-0.9,0.3-1.9,0.6-2.9,0.8
			c-1,0.2-2,0.2-3,0.2c-1.8,0-3.5-0.1-5.1-0.4c-1.7-0.2-3.3-0.6-5-1.1c-0.1-1.6-0.1-3.2-0.1-4.8c0-1.6,0-3.2,0-4.7
			c0-1.5,0-2.9,0-4.3c0-1.4,0-2.8,0-4.2c0-1.4,0-2.8,0-4.2c0-1.4,0-2.8,0-4.3h9.1v8.3c1,0,2.1,0.1,3.2,0.2c1.1,0.1,2.1,0.4,3.1,0.7
			c1,0.3,2,0.7,2.8,1.2c0.9,0.5,1.7,1.1,2.3,1.8c0.7,0.7,1.2,1.6,1.5,2.5c0.4,1,0.6,2.1,0.6,3.3
			C712.7,193.4,712.6,194.5,712.2,195.4z M703.8,190.3c-0.2-0.4-0.5-0.7-0.8-1c-0.3-0.3-0.7-0.5-1.2-0.7c-0.4-0.2-0.9-0.2-1.4-0.2
			c-0.2,0-0.4,0-0.5,0c-0.2,0-0.3,0-0.5,0l0.2,5.7c0.3,0.1,0.5,0.1,0.8,0.2c0.3,0,0.6,0.1,0.8,0.1c0.8,0,1.5-0.2,2-0.7
			c0.5-0.5,0.8-1.1,0.8-2C704.1,191.1,704,190.7,703.8,190.3z M724.6,174.5l-2.1,26.4l-8.2,0.4V175L724.6,174.5z"/>
		<path d="M750.3,175.4l-7.6,12.4l6.9,11l-8.2,2.5l-3.9-7.5l-4.1,7.9l-8.4-3l7.2-11.2l-6.6-11l8.9-2.1l3.2,7l3.4-7L750.3,175.4z"/>
	</g>
</g>
</svg>
