<?xml version="1.0" encoding="UTF-8"?> <svg xmlns="http://www.w3.org/2000/svg" height="512pt" viewBox="0 -3 512 511" width="512pt"><path d="m64.699219 305.621094h-18.296875c-21.484375 0-38.902344-17.417969-38.902344-38.902344v-38.136719c0-21.484375 17.417969-38.902343 38.902344-38.902343h18.296875zm0 0" fill="#ffe591"></path><path d="m7.5 266.71875c0 21.484375 17.417969 38.902344 38.902344 38.902344h18.296875v-53.035156h-57.199219zm0 0" fill="#ffa442"></path><path d="m110.890625 297.246094 36.878906 184.144531c1.910157 9.777344 10.859375 16.558594 20.785157 15.753906l16.707031-1.351562c10.164062-.824219 17.992187-9.3125 17.992187-19.507813l-.007812-140.105468zm0 0" fill="#3a90c8"></path><path d="m203.246094 336.179688-64.539063-27.207032 22.523438 187.371094c2.308593.710938 4.785156 1.007812 7.324219.804688l16.707031-1.355469c10.164062-.820313 17.992187-9.3125 17.992187-19.507813zm0 0" fill="#2e6c9f"></path><path d="m86.878906 194.109375 379.757813-145v397.082031l-379.757813-145zm0 0" fill="#fafaff"></path><path d="m86.878906 241.546875v59.644531l379.757813 145v-59.648437zm0 0" fill="#e6e6f2"></path><path d="m472.484375 487.300781h4.46875c15.214844 0 27.546875-12.332031 27.546875-27.546875v-424.207031c0-15.214844-12.332031-27.546875-27.546875-27.546875h-4.46875c-15.214844 0-27.546875 12.332031-27.546875 27.546875v424.207031c0 15.214844 12.332031 27.546875 27.546875 27.546875zm0 0" fill="#ff7e7e"></path><path d="m444.9375 459.753906c0 15.214844 12.332031 27.546875 27.546875 27.546875h4.46875c15.214844 0 27.546875-12.332031 27.546875-27.546875v-27.289062h-59.5625zm0 0" fill="#ff4a4a"></path><path d="m71.859375 333.039062h30.039063c9.339843 0 16.910156-7.570312 16.910156-16.90625v-136.960937c0-9.339844-7.570313-16.910156-16.910156-16.910156h-30.039063c-9.339844 0-16.910156 7.570312-16.910156 16.910156v136.957031c0 9.339844 7.570312 16.910156 16.910156 16.910156zm0 0" fill="#ff7e7e"></path><path d="m54.949219 316.128906c0 9.339844 7.570312 16.910156 16.910156 16.910156h30.039063c9.339843 0 16.910156-7.570312 16.910156-16.910156v-40.234375h-63.859375zm0 0" fill="#ff4a4a"></path><path d="m188.042969 447.488281h15.210937l-.003906-51.09375h-19.460938c-9.226562 0-16.15625 8.417969-14.386718 17.46875l4.253906 21.777344c1.347656 6.882813 7.375 11.847656 14.386719 11.847656zm0 0" fill="#e6e6f2"></path><path d="m476.953125.5h-4.46875c-19.324219 0-35.046875 15.722656-35.046875 35.046875v16.683594l-312.363281 119.265625c-3.222657-9.710938-12.394531-16.734375-23.175781-16.734375h-30.039063c-13.460937 0-24.410156 10.949219-24.410156 24.410156v3.007813h-1.046875c-25.585938 0-46.402344 20.816406-46.402344 46.402343v38.136719c0 25.585938 20.816406 46.402344 46.402344 46.402344h1.046875v3.007812c0 13.460938 10.949219 24.410156 24.410156 24.410156h30.039063c10.78125 0 19.949218-7.023437 23.175781-16.734374l312.363281 119.265624v16.683594c0 19.324219 15.722656 35.046875 35.046875 35.046875h4.46875c19.324219 0 35.046875-15.722656 35.046875-35.046875v-424.207031c0-19.324219-15.722656-35.046875-35.046875-35.046875zm-430.550781 297.621094c-17.316406 0-31.402344-14.085938-31.402344-31.402344v-38.136719c0-17.316406 14.085938-31.402343 31.402344-31.402343h1.046875v100.941406zm64.90625 18.007812c0 5.191406-4.21875 9.410156-9.410156 9.410156h-30.039063c-5.1875 0-9.410156-4.21875-9.410156-9.410156v-136.957031c0-5.1875 4.222656-9.410156 9.410156-9.410156h30.039063c5.1875 0 9.410156 4.222656 9.410156 9.410156zm385.691406 143.625c0 11.054688-8.992188 20.046875-20.046875 20.046875h-4.46875c-11.054687 0-20.046875-8.992187-20.046875-20.046875v-338.59375c0-4.144531-3.355469-7.5-7.5-7.5-4.140625 0-7.5 3.355469-7.5 7.5v305.855469l-311.128906-118.796875v-121.136719l311.128906-118.796875v22.882813c0 4.140625 3.359375 7.5 7.5 7.5 4.144531 0 7.5-3.359375 7.5-7.5v-55.621094c0-11.054687 8.992188-20.046875 20.046875-20.046875h4.46875c11.054687 0 20.046875 8.992188 20.046875 20.046875zm0 0"></path><path d="m203.253906 370.277344c-4.144531 0-7.5 3.355468-7.5 7.5v11.117187h-11.96875c-6.644531 0-12.878906 2.941407-17.101562 8.074219-4.226563 5.128906-5.917969 11.8125-4.644532 18.335938l4.257813 21.773437c2.027344 10.378906 11.175781 17.910156 21.746094 17.910156h7.710937v21.296875c0 6.242188-4.875 11.527344-11.097656 12.03125l-16.707031 1.355469c-6.121094.507813-11.640625-3.683594-12.828125-9.753906l-24.714844-123.414063c-.8125-4.0625-4.765625-6.6875-8.824219-5.882812-4.0625.8125-6.695312 4.765625-5.882812 8.828125l24.707031 123.378906c2.503906 12.808594 13.699219 21.882813 26.539062 21.882813.734376 0 1.472657-.027344 2.214844-.089844l16.707032-1.351563c13.957031-1.132812 24.886718-12.984375 24.886718-26.988281v-98.503906c0-4.140625-3.359375-7.5-7.5-7.5zm-15.210937 69.710937c-3.414063 0-6.371094-2.433593-7.023438-5.785156l-4.257812-21.777344c-.5625-2.886719.699219-4.949219 1.5-5.921875.800781-.976562 2.585937-2.609375 5.523437-2.609375h11.96875v36.09375zm0 0"></path></svg> 